<svg width="68" height="11" viewBox="0 0 68 11" fill="none" xmlns="http://www.w3.org/2000/svg">
<path fill-rule="evenodd" clip-rule="evenodd" d="M5.69478 8.68583L9.21415 10.649L8.28021 6.94899L11.3896 4.45951L7.29501 4.13846L5.69478 0.648987L4.09454 4.13846L0 4.45951L3.10935 6.94899L2.17541 10.649L5.69478 8.68583Z" fill="#F8475F"/>
<path fill-rule="evenodd" clip-rule="evenodd" d="M19.6948 8.68684L23.2142 10.65L22.2802 6.95L25.3896 4.46052L21.295 4.13947L19.6948 0.650002L18.0945 4.13947L14 4.46052L17.1093 6.95L16.1754 10.65L19.6948 8.68684Z" fill="#F8475F"/>
<path fill-rule="evenodd" clip-rule="evenodd" d="M33.6948 8.68684L37.2142 10.65L36.2802 6.95L39.3896 4.46052L35.295 4.13947L33.6948 0.650002L32.0945 4.13947L28 4.46052L31.1093 6.95L30.1754 10.65L33.6948 8.68684Z" fill="#F8475F"/>
<path fill-rule="evenodd" clip-rule="evenodd" d="M47.6948 8.68684L51.2142 10.65L50.2802 6.95L53.3896 4.46052L49.295 4.13947L47.6948 0.650002L46.0945 4.13947L42 4.46052L45.1093 6.95L44.1754 10.65L47.6948 8.68684Z" fill="#F8475F"/>
<path fill-rule="evenodd" clip-rule="evenodd" d="M61.6948 8.68684L65.2142 10.65L64.2802 6.95L67.3896 4.46052L63.295 4.13947L61.6948 0.650002L60.0945 4.13947L56 4.46052L59.1093 6.95L58.1754 10.65L61.6948 8.68684Z" fill="#F8475F"/>
</svg>
